<svg xmlns="http://www.w3.org/2000/svg" viewBox="0 17.399999618530273 291.29998779296875 43.55000686645508" data-asc="1.06" width="291.29998779296875" height="43.55000686645508"><defs/><g fill="#ffffff"><g transform="translate(0, 0)"><path d="M21.55 60.95L16.05 53.60L16.05 52.45L19.05 52.45L21.10 53.70L26.35 60.95L21.55 60.95M16.15 53.60Q13.15 53.60 10.25 52.65Q7.35 51.70 5.05 49.63Q2.75 47.55 1.38 44.10Q0 40.65 0 35.65Q0 30.60 1.38 27.10Q2.75 23.60 5.05 21.47Q7.35 19.35 10.25 18.38Q13.15 17.40 16.15 17.40Q19.15 17.40 22.05 18.38Q24.95 19.35 27.25 21.47Q29.55 23.60 30.92 27.10Q32.30 30.60 32.30 35.65Q32.30 40.65 30.92 44.10Q29.55 47.55 27.25 49.63Q24.95 51.70 22.07 52.65Q19.20 53.60 16.15 53.60M16.10 49.80Q19.30 49.80 21.95 48.40Q24.60 47 26.20 43.88Q27.80 40.75 27.80 35.50Q27.80 30.30 26.23 27.15Q24.65 24 22 22.60Q19.35 21.20 16.15 21.20Q12.95 21.20 10.30 22.60Q7.65 24 6.08 27.15Q4.50 30.30 4.50 35.50Q4.50 40.70 6.08 43.85Q7.65 47 10.28 48.40Q12.90 49.80 16.10 49.80ZM48.80 53.60Q47.25 53.60 45.58 53.20Q43.90 52.80 42.48 51.83Q41.05 50.85 40.17 49.13Q39.30 47.40 39.30 44.70L39.30 31.50L38.80 27.50L44 27.50L43.50 31.50L43.50 44.05Q43.50 46.55 44.33 47.85Q45.15 49.15 46.52 49.58Q47.90 50 49.55 50Q52.75 50 54.50 49.02Q56.25 48.05 57.60 46.65L57.60 49.45L53.05 52.95Q52.10 53.25 51.05 53.42Q50 53.60 48.80 53.60M57.25 53L56.70 49.85L56.70 31.50L56.20 27.50L61.40 27.50L60.90 31.50L60.90 49L61.40 53L57.25 53ZM85.20 53L84.45 50.35L84.45 36.75Q84.45 34.75 83.90 33.38Q83.35 32 81.75 31.25Q80.15 30.50 77 30.50Q75.15 30.50 73.58 30.85Q72 31.20 70.55 32.15L69.75 31.65L69.75 28.05Q71.95 27.35 73.88 27.13Q75.80 26.90 77.45 26.90Q81.80 26.90 84.23 28.05Q86.65 29.20 87.65 31.42Q88.65 33.65 88.65 36.90L88.65 49L89.15 53L85.20 53M76.75 53.60Q74.55 53.60 72.40 52.88Q70.25 52.15 68.83 50.38Q67.40 48.60 67.40 45.50Q67.40 43.10 68.30 41.50Q69.20 39.90 70.73 39Q72.25 38.10 74.15 37.73Q76.05 37.35 78.05 37.35Q79.25 37.35 80.28 37.45Q81.30 37.55 82.30 37.80L84.90 39.65L84.90 41.95Q83.60 41.25 82.13 40.98Q80.65 40.70 78.75 40.70Q75.25 40.70 73.42 41.73Q71.60 42.75 71.60 45.55Q71.60 47.85 72.95 48.98Q74.30 50.10 77.30 50.10Q80.40 50.10 82.23 49.10Q84.05 48.10 85.05 46.70L86.05 48.95L81.25 53Q80.25 53.25 79.10 53.42Q77.95 53.60 76.75 53.60ZM113.15 53L113.65 49L113.65 36.25Q113.65 33.50 112.10 32.10Q110.55 30.70 107.50 30.70Q105.10 30.70 103.40 31.40Q101.70 32.10 100.63 32.97Q99.55 33.85 99 34.45L99 31.55L104.40 27.45Q105.40 27.20 106.45 27.05Q107.50 26.90 108.60 26.90Q111 26.90 113.10 27.72Q115.20 28.55 116.53 30.55Q117.85 32.55 117.85 36.10L117.85 49L118.35 53L113.15 53M95.75 53L96.25 49L96.25 31.40L95.75 27.50L99.75 27.50L100.45 30.45L100.45 49L100.95 53L95.75 53ZM127.45 45.85L127.45 23.90L127.20 20.40L131.90 20.40L131.65 23.90L131.65 45.75Q131.65 48.15 132.72 49.08Q133.80 50 135.90 50Q136.90 50 137.63 49.80Q138.35 49.60 139 49.25L139.80 49.75L139.80 52.85Q138.70 53.25 137.58 53.42Q136.45 53.60 135.40 53.60Q133.40 53.60 131.58 52.92Q129.75 52.25 128.60 50.58Q127.45 48.90 127.45 45.85M123.15 31.25L123.15 27.50L126.35 27.50L129.55 29L132.75 27.50L139.30 27.50L139.30 31.25L136.80 31L125.65 31L123.15 31.25ZM155.10 53.60Q153.55 53.60 151.88 53.20Q150.20 52.80 148.78 51.83Q147.35 50.85 146.48 49.13Q145.60 47.40 145.60 44.70L145.60 31.50L145.10 27.50L150.30 27.50L149.80 31.50L149.80 44.05Q149.80 46.55 150.63 47.85Q151.45 49.15 152.83 49.58Q154.20 50 155.85 50Q159.05 50 160.80 49.02Q162.55 48.05 163.90 46.65L163.90 49.45L159.35 52.95Q158.40 53.25 157.35 53.42Q156.30 53.60 155.10 53.60M163.55 53L163.00 49.85L163.00 31.50L162.50 27.50L167.70 27.50L167.20 31.50L167.20 49L167.70 53L163.55 53ZM206.80 53L207.30 49L207.30 36.45Q207.30 33.55 205.70 32.13Q204.10 30.70 201.50 30.70Q199.20 30.70 197.58 31.57Q195.95 32.45 194.90 33.55Q193.85 34.65 193.35 35.30L193.35 31.65L198.55 27.40Q199.65 27.10 200.63 27Q201.60 26.90 202.40 26.90Q205.75 26.90 207.75 28.02Q209.75 29.15 210.63 31Q211.50 32.85 211.50 35.05L211.50 49L212.00 53L206.80 53M174.80 53L175.30 49L175.30 31.50L174.80 27.50L178.55 27.50L179.50 32.90L179.50 49L180.00 53L174.80 53M190.80 53L191.30 49L191.30 36.45Q191.30 33.55 189.75 32.13Q188.20 30.70 185.60 30.70Q183.35 30.70 181.68 31.55Q180.00 32.40 178.95 33.45Q177.90 34.50 177.40 35.10L177.40 31.65L182.60 27.40Q183.95 27.10 185.03 27Q186.10 26.90 186.85 26.90Q190.00 26.90 191.90 28.02Q193.80 29.15 194.65 31Q195.50 32.85 195.50 35.05L195.50 49L196.00 53L190.80 53ZM232.90 53L233.40 49L233.40 22L232.90 18L243.50 18Q245.40 18 247.45 18.23Q249.50 18.45 251.53 19.05Q253.55 19.65 255.35 20.88Q257.15 22.10 258.55 24.05Q259.95 26 260.75 28.88Q261.55 31.75 261.55 35.75Q261.55 40.35 260.50 43.45Q259.45 46.55 257.63 48.45Q255.80 50.35 253.50 51.33Q251.20 52.30 248.63 52.65Q246.05 53 243.50 53L232.90 53M237.65 49.10L244.55 49.10Q247.50 49.10 249.83 48.52Q252.15 47.95 253.75 46.50Q255.35 45.05 256.20 42.42Q257.05 39.80 257.05 35.70Q257.05 31.25 256.10 28.52Q255.15 25.80 253.43 24.38Q251.70 22.95 249.45 22.42Q247.20 21.90 244.55 21.90L237.65 21.90L237.65 49.10ZM279.40 53.60Q276.45 53.65 273.65 53Q270.85 52.35 268.65 51.30L268.65 47.50L269.65 47Q271.70 48.25 273.88 48.92Q276.05 49.60 278.85 49.60Q282.60 49.60 284.75 48.30Q286.90 47 286.90 44.40Q286.90 42.60 285.95 41.38Q285.00 40.15 283.40 39.25Q281.80 38.35 279.93 37.58Q278.05 36.80 276.15 35.92Q274.25 35.05 272.65 33.85Q271.05 32.65 270.10 30.90Q269.15 29.15 269.15 26.60Q269.15 23.35 270.73 21.32Q272.30 19.30 274.85 18.35Q277.40 17.40 280.30 17.40Q282.30 17.40 284.55 17.82Q286.80 18.25 289.00 19.20L289.00 23L288.00 23.50Q286.30 22.45 284.43 21.92Q282.55 21.40 280.60 21.40Q278.55 21.40 276.95 21.97Q275.35 22.55 274.45 23.67Q273.55 24.80 273.55 26.50Q273.55 28.25 274.50 29.45Q275.45 30.65 277.05 31.52Q278.65 32.40 280.55 33.17Q282.45 33.95 284.33 34.83Q286.20 35.70 287.80 36.92Q289.40 38.15 290.35 39.92Q291.30 41.70 291.30 44.25Q291.30 46.80 290.33 48.58Q289.35 50.35 287.68 51.45Q286.00 52.55 283.88 53.08Q281.75 53.60 279.40 53.60Z"/></g></g></svg>