<svg xmlns="http://www.w3.org/2000/svg" viewBox="0 17.399999618530273 32.29999923706055 43.55000686645508" data-asc="1.06" width="32.29999923706055" height="43.55000686645508"><defs/><g fill="#ffffff"><g transform="translate(0, 0)"><path d="M21.55 60.95L16.05 53.60L16.05 52.45L19.05 52.45L21.10 53.70L26.35 60.95L21.55 60.95M16.15 53.60Q13.15 53.60 10.25 52.65Q7.35 51.70 5.05 49.63Q2.75 47.55 1.38 44.10Q0 40.65 0 35.65Q0 30.60 1.38 27.10Q2.75 23.60 5.05 21.47Q7.35 19.35 10.25 18.38Q13.15 17.40 16.15 17.40Q19.15 17.40 22.05 18.38Q24.95 19.35 27.25 21.47Q29.55 23.60 30.92 27.10Q32.30 30.60 32.30 35.65Q32.30 40.65 30.92 44.10Q29.55 47.55 27.25 49.63Q24.95 51.70 22.07 52.65Q19.20 53.60 16.15 53.60M16.10 49.80Q19.30 49.80 21.95 48.40Q24.60 47 26.20 43.88Q27.80 40.75 27.80 35.50Q27.80 30.30 26.23 27.15Q24.65 24 22 22.60Q19.35 21.20 16.15 21.20Q12.95 21.20 10.30 22.60Q7.65 24 6.08 27.15Q4.50 30.30 4.50 35.50Q4.50 40.70 6.08 43.85Q7.65 47 10.28 48.40Q12.90 49.80 16.10 49.80Z"/></g></g></svg>